# xmcd CD database file
#
# Track frame offsets:
#	150
#	20294
#	33471
#	53480
#	70526
#	102652
#	119358
#	137145
#	160116
#	174053
#	197002
#
# Disc length: 2924 seconds
#
# Revision: 1
# Processed by: cddbd v1.5.2PL0 Copyright (c) Steve Scherf et al.
# Submitted via: CDex 1.70beta2
#
DISCID=870b6a0b
DTITLE=ERIC CLAPTON - 20th century masters - Best of
DYEAR=2007
DGENRE=Blues
TTITLE0=I shot the sheriff
TTITLE1=After midnight
TTITLE2=Knockin´ on heavens door
TTITLE3=Wonderful tonight
TTITLE4=Layla
TTITLE5=Cocaine
TTITLE6=Lay down Sally
TTITLE7=Bell bottom blues
TTITLE8=Promises
TTITLE9=Let it rain
TTITLE10=Let it grow
EXTD=YEAR 2004 YEAR: 2007
EXTT0=By LosEnviados.Net
EXTT1=By LosEnviados.Net
EXTT2=By LosEnviados.Net
EXTT3=By LosEnviados.Net
EXTT4=By LosEnviados.Net
EXTT5=By LosEnviados.Net
EXTT6=By LosEnviados.Net
EXTT7=By LosEnviados.Net
EXTT8=By LosEnviados.Net
EXTT9=By LosEnviados.Net
EXTT10=By LosEnviados.Net
PLAYORDER=
